<svg xmlns="http://www.w3.org/2000/svg" viewBox="0 0 199.29 198.47"><defs><style>.cls-1{fill:#68fff0;}.cls-2{fill:#fc6806;}</style></defs><g id="Layer_2" data-name="Layer 2"><g id="OBJECTS"><path class="cls-1" d="M145.72,179.28l.95-.55,1.14-.66,1.5-1,1.86-1.19c.67-.44,1.37-1,2.13-1.49,1.53-1.05,3.17-2.35,5-3.77a96.56,96.56,0,0,0,11.2-10.85A93,93,0,0,0,187.33,129a90.57,90.57,0,0,0,3.83-15.14c.22-1.12.32-2.21.46-3.24s.28-2,.35-2.94c.13-1.85.29-3.47.34-4.8.06-2.66.1-4.18.1-4.18h3.44s0,1.58-.1,4.34c-.05,1.38-.21,3-.35,5-.07,1-.23,2-.36,3s-.26,2.21-.48,3.37a93.54,93.54,0,0,1-4,15.71,96,96,0,0,1-18.53,31.93,97.93,97.93,0,0,1-11.61,11.25c-1.85,1.48-3.56,2.82-5.15,3.91-.78.56-1.51,1.09-2.21,1.55L151.16,180l-1.56,1-1.18.69-1,.57Z"/><path class="cls-1" d="M116.53,161.35l2.21-.62,2.5-.85c1-.31,2-.78,3.2-1.22a65.89,65.89,0,0,0,15.79-9.41,68.42,68.42,0,0,0,7.19-6.75c.53-.58,1-1.18,1.53-1.74.24-.29.5-.57.73-.86l.68-.86c.44-.57.89-1.11,1.29-1.66l1.14-1.6a59.51,59.51,0,0,0,3.23-5.14c.37-.63.66-1.13.83-1.49l.27-.53,3.06,1.59-.29.56c-.18.38-.48.9-.87,1.57a62.63,62.63,0,0,1-3.41,5.41c-.38.54-.78,1.11-1.2,1.69s-.89,1.14-1.36,1.74l-.71.91c-.24.3-.51.6-.77.9-.53.6-1,1.23-1.61,1.84a73.53,73.53,0,0,1-7.56,7.1,69.31,69.31,0,0,1-16.63,9.9c-1.24.47-2.35,1-3.37,1.3l-2.64.89-2.34.66Z"/><path class="cls-1" d="M152.72,129.51l.69-1.2c.24-.37.45-.87.74-1.41s.62-1.15.93-1.84a61.16,61.16,0,0,0,5.69-21.29c0-.76.13-1.45.15-2.06s0-1.16,0-1.6c0-.89,0-1.4,0-1.4h6.87l0,1.55c0,.49,0,1.09,0,1.77s-.11,1.46-.17,2.3A68,68,0,0,1,161.29,128c-.35.77-.73,1.44-1,2.05s-.56,1.15-.82,1.57l-.77,1.33Z"/><path class="cls-1" d="M67.09,154.92l.46.26c.29.17.72.44,1.28.73l2,1.05c.78.42,1.72.79,2.71,1.25.49.24,1,.45,1.57.66l1.7.67c.58.24,1.2.41,1.82.63s1.25.45,1.9.63c1.32.36,2.67.8,4.07,1.08.7.15,1.4.35,2.12.48l2.15.38a66.22,66.22,0,0,0,16,.63c1.09-.05,2.09-.2,3-.31s1.65-.2,2.28-.33l2-.35.67,3.37-2.08.37c-.66.14-1.47.23-2.4.35s-2,.27-3.13.33a69.72,69.72,0,0,1-16.87-.66l-2.27-.41c-.75-.13-1.48-.33-2.22-.49-1.48-.3-2.9-.76-4.29-1.14-.69-.19-1.35-.45-2-.66s-1.31-.42-1.92-.67l-1.78-.71c-.58-.22-1.14-.44-1.66-.69-1-.49-2-.88-2.85-1.32l-2.16-1.11c-.59-.31-1-.59-1.35-.76l-.48-.28Z"/><path class="cls-1" d="M107.63,191.23l1.23-.1,3.24-.4c1.34-.15,2.9-.44,4.56-.74s3.41-.71,5.17-1.11,3.48-.95,5.11-1.4,3.09-1,4.37-1.47l4.2-1.65,1.33,3.18-4.35,1.7c-1.33.45-2.87,1-4.54,1.53s-3.47,1-5.29,1.45-3.64.88-5.37,1.16-3.33.61-4.73.76-2.54.33-3.36.42l-1.27.1Z"/><path class="cls-1" d="M151.33,175.88s.38-.25,1-.71l2.66-1.9c1.07-.81,2.3-1.8,3.63-2.84s2.66-2.25,4-3.49,2.63-2.46,3.77-3.7l1.68-1.77c.53-.56,1-1.12,1.44-1.63,1.8-2,2.88-3.46,2.88-3.46l5.36,4.24-.83,1c-.51.67-1.32,1.56-2.26,2.67-.48.54-1,1.15-1.55,1.75s-1.17,1.24-1.8,1.89c-1.23,1.33-2.65,2.64-4.05,4s-2.9,2.55-4.26,3.74-2.75,2.18-3.9,3.05l-2.86,2c-.68.49-1.09.76-1.09.76Z"/><path class="cls-1" d="M74.86,188.31l1.19.34c.76.2,1.86.44,3.18.75s2.87.6,4.53.89,3.46.52,5.24.75c.9.13,1.79.19,2.68.26l2.59.19c1.69.1,3.26.11,4.61.15s2.47,0,3.25,0l1.24,0,.21,5.06-1.31,0c-.82,0-2,.08-3.43.05s-3.08-.05-4.85-.15l-2.74-.2c-.93-.07-1.87-.14-2.82-.27-1.88-.25-3.77-.45-5.52-.79s-3.39-.6-4.78-.94-2.55-.58-3.35-.79l-1.26-.36Z"/><path class="cls-1" d="M51.36,182.12l2,1.16c.65.36,1.46.76,2.38,1.24s2,1,3.13,1.53a94.77,94.77,0,0,0,17.64,6.21A99.44,99.44,0,0,0,95,194.93c2.54.06,4.66.15,6.14.07l2.34-.06.14,3.44-2.42.07c-1.53.07-3.73,0-6.36-.08a102.14,102.14,0,0,1-19.15-2.77,97.7,97.7,0,0,1-18.28-6.43c-1.21-.52-2.28-1.1-3.24-1.58s-1.79-.91-2.47-1.28l-2.1-1.21Z"/><polygon class="cls-1" points="171.73 101.38 171.78 99.6 189.46 99.82 189.4 102.02 171.73 101.38"/><polygon class="cls-1" points="171.43 106.13 171.56 104.36 189.19 105.72 189.01 107.92 171.43 106.13"/><path class="cls-1" d="M170.77,110.84l.16-.87c0-.22.07-.44.09-.6s0-.28,0-.28l17.5,2.52-.05.34a6.18,6.18,0,0,1-.11.75c-.09.55-.19,1.09-.19,1.09Z"/><polygon class="cls-1" points="169.82 115.5 170.22 113.78 187.52 117.44 187.02 119.59 169.82 115.5"/><polygon class="cls-1" points="168.59 120.09 169.07 118.39 186.09 123.19 185.48 125.32 168.59 120.09"/><path class="cls-1" d="M167,124.58s.16-.41.33-.82.29-.84.29-.84l16.65,5.92s-.16.53-.36,1-.41,1-.41,1Z"/><polygon class="cls-1" points="165.17 128.96 165.9 127.34 182.13 134.35 181.22 136.37 165.17 128.96"/><polygon class="cls-1" points="163.05 133.22 163.86 131.64 179.59 139.71 178.58 141.67 163.05 133.22"/><path class="cls-1" d="M160.62,137.31l.48-.75c.25-.37.46-.76.46-.76l15.17,9.09s-.27.48-.58.94-.59.93-.59.93Z"/><polygon class="cls-1" points="157.95 141.25 158.98 139.8 173.51 149.86 172.23 151.66 157.95 141.25"/><path class="cls-1" d="M155,145s.29-.33.56-.69.55-.69.55-.69l13.84,11-.68.87c-.33.44-.7.85-.7.85Z"/><polygon class="cls-1" points="151.85 148.54 153.07 147.26 166.17 159.13 164.65 160.74 151.85 148.54"/><polygon class="cls-1" points="148.46 151.89 149.75 150.66 162.04 163.37 160.44 164.89 148.46 151.89"/><path class="cls-1" d="M144.85,155l.7-.55.67-.58,11.43,13.49-.83.72-.87.68Z"/><polygon class="cls-1" points="141.05 157.85 142.5 156.82 153.02 171.03 151.22 172.31 141.05 157.85"/><polygon class="cls-1" points="137.08 160.48 138.57 159.52 148.14 174.38 146.28 175.57 137.08 160.48"/><path class="cls-1" d="M132.93,162.8l.79-.4.54-.29.24-.14,8.57,15.46-.3.17c-.18.11-.42.24-.67.37l-1,.5Z"/><path class="cls-2" d="M116.9,168.88l.33-.08a7.38,7.38,0,0,0,.74-.19l1.07-.31,1.85,6.64-1.17.33c-.29.09-.58.16-.8.21l-.38.08Z"/><path class="cls-2" d="M112.35,169.83l1.09-.19c.55-.09,1.09-.22,1.09-.22l1.67,7.91s-.6.15-1.21.25l-1.21.21Z"/><polygon class="cls-2" points="107.75 170.51 109.96 170.23 111.28 179.42 108.8 179.74 107.75 170.51"/><path class="cls-2" d="M103.12,170.9l.34,0,.77-.06,1.1-.08.83,10.45-1.26.09-.87.07-.4,0Z"/><path class="cls-2" d="M98.46,171l1.11,0,1.12,0,.18,11.68-1.29,0-1.29,0Z"/><path class="cls-2" d="M93.81,170.74l1.11.09.76.06a2.33,2.33,0,0,0,.35,0l-.61,12.87-.41,0-.9-.06-1.3-.1Z"/><polygon class="cls-2" points="89.19 170.24 91.39 170.52 89.83 184.52 87.2 184.18 89.19 170.24"/><path class="cls-2" d="M84.61,169.44l.34.08.75.14,1.09.19-2.67,15-1.32-.23-.91-.17-.41-.09Z"/><path class="cls-2" d="M80.11,168.33l1.06.31c.27.08.54.13.74.18l.34.08-3.92,16-.42-.09c-.25-.06-.58-.13-.91-.23l-1.31-.37Z"/><polygon class="cls-2" points="75.67 166.94 77.78 167.66 72.46 184.52 69.84 183.63 75.67 166.94"/><path class="cls-1" d="M6.65,98.43s0,.09,0,.28,0,.45,0,.81c0,.71,0,1.76.08,3.09s.19,2.94.32,4.79c.05.93.21,1.91.33,2.94s.24,2.13.45,3.25a92.9,92.9,0,0,0,21.56,46,97,97,0,0,0,11.16,10.89c1.8,1.41,3.42,2.73,5,3.78l2.12,1.5L49.5,177c1.12.72,2,1.29,2.63,1.63l.95.55-1.72,3-1-.57c-.65-.35-1.56-.94-2.73-1.69l-1.92-1.24-2.21-1.56c-1.59-1.08-3.27-2.46-5.14-3.92A100.8,100.8,0,0,1,26.8,161.85a96.32,96.32,0,0,1-18.43-32,95.1,95.1,0,0,1-3.93-15.72c-.22-1.17-.32-2.3-.47-3.37s-.28-2.09-.34-3c-.13-1.92-.31-3.59-.33-5s-.06-2.46-.08-3.2c0-.37,0-.65,0-.84s0-.29,0-.29Z"/><path class="cls-1" d="M36.77,82.09s-.06.2-.15.59-.22.94-.38,1.65c-.08.36-.18.75-.28,1.18s-.16.91-.25,1.41l-.29,1.6c-.1.56-.15,1.17-.24,1.79a68.17,68.17,0,0,0-.55,8.59,72.81,72.81,0,0,0,.76,9.84,73,73,0,0,0,2.24,9.56c.51,1.49,1,2.94,1.53,4.26s1.1,2.58,1.6,3.73,1.09,2.15,1.54,3.06,1,1.66,1.31,2.3.67,1.13.88,1.46l.33.5-2.9,1.86-.35-.53c-.22-.35-.56-.86-.93-1.54s-.87-1.47-1.37-2.42-1.08-2-1.62-3.23-1.17-2.5-1.69-3.92-1.07-2.92-1.61-4.49A73.86,73.86,0,0,1,32,109.26a77.29,77.29,0,0,1-.81-10.35,69.14,69.14,0,0,1,.59-9c.09-.66.14-1.29.25-1.88s.21-1.16.31-1.69.17-1,.26-1.48.2-.87.29-1.25c.17-.75.31-1.34.4-1.74a4.32,4.32,0,0,1,.17-.61Z"/><path class="cls-1" d="M46.24,129.35l.68,1.2.87,1.34c.34.51.68,1.12,1.14,1.72a60.74,60.74,0,0,0,15.62,15.65c.6.45,1.2.81,1.72,1.14l1.33.86,1.21.69-3.44,6L64,157.13l-1.49-1c-.57-.37-1.24-.76-1.91-1.27a66.32,66.32,0,0,1-9.47-7.9,67.58,67.58,0,0,1-7.89-9.48c-.5-.67-.89-1.34-1.26-1.91l-1-1.49-.77-1.34Z"/><path class="cls-1" d="M67.09,42.5l-.45.27c-.3.17-.74.4-1.27.76l-1.94,1.24c-.74.5-1.55,1.1-2.44,1.72A65,65,0,0,0,40.8,71.06c-.44,1-.88,1.9-1.22,2.73s-.6,1.54-.84,2.14-.38,1.07-.49,1.39l-.17.5-3.26-1.11s.06-.19.18-.53.25-.84.52-1.46.54-1.39.89-2.26.81-1.81,1.27-2.87a69.45,69.45,0,0,1,9-14.24A70.33,70.33,0,0,1,58.94,43.73c.94-.66,1.79-1.29,2.57-1.82s1.48-.94,2-1.31,1-.62,1.34-.8l.48-.28Z"/><path class="cls-1" d="M15.34,59.47s-.19.41-.51,1.13-.82,1.73-1.3,3A89.36,89.36,0,0,0,10.29,73c-.25.87-.49,1.74-.73,2.59s-.4,1.71-.59,2.54c-.41,1.64-.68,3.19-.91,4.52-.12.67-.23,1.28-.32,1.82s-.14,1-.19,1.41c-.1.78-.16,1.22-.16,1.22L4,86.64s.07-.47.17-1.28c.05-.4.11-.9.19-1.46s.21-1.19.34-1.88c.24-1.38.52-3,.94-4.69l.61-2.64c.25-.88.5-1.78.76-2.68a92,92,0,0,1,3.36-9.71c.5-1.32,1-2.36,1.35-3.11s.53-1.17.53-1.17Z"/><path class="cls-1" d="M6.82,105s0,.45.09,1.24.12,1.91.31,3.25a89.75,89.75,0,0,0,1.67,9.76c.2.88.4,1.76.6,2.62s.48,1.7.71,2.51.44,1.61.69,2.34.48,1.43.69,2.07l.6,1.75c.18.52.37,1,.51,1.33.29.73.45,1.15.45,1.15l-6.35,2.52s-.17-.45-.49-1.24c-.15-.39-.34-.87-.54-1.42s-.41-1.19-.64-1.88-.49-1.43-.75-2.22-.48-1.64-.74-2.51-.5-1.78-.76-2.7-.43-1.87-.65-2.81A96,96,0,0,1,.44,110.24C.23,108.8.17,107.6.1,106.75s-.1-1.32-.1-1.32Z"/><path class="cls-1" d="M34.27,32.55l-.23.23c-.16.14-.37.36-.64.65l-2.26,2.36c-.92,1-1.93,2.2-3,3.47S25.92,42,24.83,43.41a97.29,97.29,0,0,0-5.45,8.27l-1.62,2.83-.57,1.1-4.48-2.34.6-1.17,1.71-3a102.22,102.22,0,0,1,5.75-8.71c1.15-1.51,2.32-3,3.45-4.38s2.23-2.62,3.2-3.66l2.38-2.49c.28-.3.51-.53.67-.68l.25-.24Z"/><path class="cls-1" d="M51.36,15.31s-.75.41-2,1.18l-2.27,1.44-1.38.9-1.5,1.05A96.75,96.75,0,0,0,18.47,46.69c-1.41,2.13-2.43,4-3.18,5.29-.37.64-.64,1.16-.82,1.52l-.28.54-3-1.6.29-.56c.18-.37.46-.91.85-1.57.78-1.34,1.83-3.28,3.29-5.48A100.41,100.41,0,0,1,42.21,17.07L43.76,16l1.44-.92,2.34-1.5c1.32-.8,2.09-1.22,2.09-1.22Z"/><path class="cls-1" d="M61.12,159.93l.74.48c.38.24.77.45.77.45l-9,15.19s-.49-.26-1-.56l-.93-.6Z"/><polygon class="cls-1" points="57.17 157.27 58.62 158.3 48.6 172.86 46.8 171.58 57.17 157.27"/><path class="cls-1" d="M53.41,154.36a2.36,2.36,0,0,0,.21.18l.48.38.7.54-11,13.88-.86-.68-.6-.47c-.16-.13-.26-.23-.26-.23Z"/><path class="cls-1" d="M49.85,151.19l.65.61.44.43a2.36,2.36,0,0,1,.21.18L39.31,165.54l-.26-.23-.55-.52-.8-.76Z"/><polygon class="cls-1" points="46.5 147.81 47.73 149.1 35.06 161.42 33.53 159.82 46.5 147.81"/><path class="cls-1" d="M43.38,144.22s.07.08.17.22.24.3.39.47l.58.67L31.07,157.05l-.72-.84c-.18-.2-.35-.42-.48-.58l-.21-.28Z"/><polygon class="cls-1" points="40.51 140.42 41.54 141.87 27.37 152.43 26.09 150.63 40.51 140.42"/><polygon class="cls-1" points="37.88 136.46 38.84 137.95 24 147.56 22.81 145.7 37.88 136.46"/><path class="cls-1" d="M35.54,132.32l.4.79.44.77L21,142.49l-.55-1-.51-1Z"/><polygon class="cls-1" points="33.47 128.04 34.19 129.65 18.22 137.23 17.31 135.22 33.47 128.04"/><polygon class="cls-1" points="31.66 123.64 32.31 125.29 15.88 131.79 15.07 129.74 31.66 123.64"/><path class="cls-1" d="M30.19,119.12l.24.85a5.89,5.89,0,0,0,.18.58c.06.16.09.27.09.27l-16.83,5.4-.11-.33c-.07-.2-.16-.46-.23-.72l-.3-1.07Z"/><polygon class="cls-1" points="29 114.52 29.4 116.25 12.25 120.52 11.75 118.36 29 114.52"/><polygon class="cls-1" points="28.1 109.85 28.42 111.59 11.02 114.72 10.63 112.55 28.1 109.85"/><path class="cls-1" d="M27.55,105.12l.06.89c.06.44.11.88.11.88l-17.57,2s-.06-.55-.13-1.1l-.08-1.1Z"/><polygon class="cls-1" points="27.29 100.37 27.33 102.14 9.68 102.97 9.62 100.76 27.29 100.37"/><polygon class="cls-1" points="27.33 95.6 27.28 97.38 9.61 97.06 9.66 94.85 27.33 95.6"/><path class="cls-2" d="M30.08,78.67l-.3,1.06c-.07.27-.15.53-.21.74s-.09.33-.09.33l-6.67-1.7s0-.15.1-.37.14-.51.23-.8c.16-.59.33-1.17.33-1.17Z"/><polygon class="cls-2" points="31.5 74.24 30.79 76.34 23.1 73.84 23.89 71.51 31.5 74.24"/><path class="cls-2" d="M33.22,69.93l-.14.31c-.09.19-.2.45-.3.71l-.41,1-8.62-3.44.46-1.16c.11-.3.23-.58.33-.8l.17-.35Z"/><path class="cls-2" d="M35.22,65.73l-.51,1-.35.68-.14.32-9.47-4.51.17-.36c.1-.21.25-.49.39-.78l.58-1.13Z"/><polygon class="cls-2" points="37.46 61.67 36.36 63.59 26.15 57.9 27.44 55.67 37.46 61.67"/><path class="cls-2" d="M40,57.76l-.2.28c-.13.17-.28.4-.43.63l-.6.94-10.82-7,.7-1.1c.18-.28.36-.55.5-.75l.24-.33Z"/><path class="cls-2" d="M42.74,54l-.68.87-.47.6-.2.29L30.07,47.4l.24-.34.56-.71.82-1Z"/><polygon class="cls-2" points="45.73 50.45 44.28 52.13 32.6 42.28 34.36 40.25 45.73 50.45"/><path class="cls-2" d="M49,47.1l-.25.24a5.48,5.48,0,0,0-.54.54l-.77.8L35.5,37.27l1-1c.23-.25.47-.49.66-.67l.3-.29Z"/><path class="cls-2" d="M52.38,44l-.84.72-.58.5-.25.24-12-13,.32-.3.71-.62,1.05-.9Z"/><path class="cls-1" d="M146.22,18.43l-.95-.55c-.62-.35-1.52-.89-2.72-1.48s-2.61-1.38-4.32-2.12c-.85-.38-1.75-.8-2.7-1.21l-3.06-1.21a94.67,94.67,0,0,0-15-4.28,92.81,92.81,0,0,0-35.57-.06,95,95,0,0,0-15,4.24L63.79,13c-1,.39-1.86.82-2.71,1.19-1.71.74-3.14,1.5-4.33,2.11l-1.58.82L54,17.74l-1,.55-1.72-3,1-.57,1.19-.68,1.64-.85c1.23-.63,2.71-1.41,4.48-2.18.89-.39,1.81-.84,2.81-1.24l3.17-1.25a96.45,96.45,0,0,1,34-6.15A96.1,96.1,0,0,1,118.11,4.2a98.09,98.09,0,0,1,15.58,4.44l3.17,1.26c1,.43,1.92.86,2.81,1.25,1.76.77,3.24,1.58,4.48,2.2s2.17,1.17,2.82,1.54l1,.56Z"/><path class="cls-1" d="M145.27,52.68l-1.67-1.59c-.51-.53-1.22-1.07-2-1.76S139.93,48,139,47.17c-.49-.4-1-.78-1.58-1.17s-1.12-.81-1.72-1.21c-1.22-.76-2.47-1.63-3.85-2.38s-2.82-1.51-4.28-2.27l-2.27-1c-.76-.36-1.55-.62-2.33-.95A64.43,64.43,0,0,0,105,34.06l-1.8-.14c-.57-.05-1.12,0-1.63-.05-1,0-1.93-.09-2.66,0l-2.31.05-.16-3.44,2.44-.06c.77-.05,1.71,0,2.79,0,.54,0,1.12,0,1.72.06l1.9.15A67.68,67.68,0,0,1,124.17,35c.81.34,1.65.62,2.45,1s1.59.73,2.39,1.08c1.54.8,3.08,1.54,4.5,2.4s2.78,1.69,4.06,2.5c.63.43,1.22.87,1.81,1.28s1.15.8,1.66,1.23c1,.82,2,1.54,2.81,2.27s1.55,1.3,2.09,1.85l1.76,1.68Z"/><path class="cls-1" d="M99.62,37.24a2.45,2.45,0,0,0-.36,0l-1,0-1.6,0c-.62,0-1.31.1-2.07.15a61,61,0,0,0-21.3,5.66c-.69.3-1.29.66-1.84.92s-1,.51-1.41.74l-1.2.69-3.44-5.95,1.33-.77c.42-.25,1-.5,1.57-.81s1.28-.69,2-1A67.78,67.78,0,0,1,94,30.61c.84-.06,1.6-.14,2.29-.16l1.77,0,1.15,0c.26,0,.4,0,.4,0Z"/><path class="cls-1" d="M164.43,98.71s0-.73-.06-2c0-.64,0-1.42-.1-2.31s-.11-1.89-.26-3a65.59,65.59,0,0,0-3.73-15.54c-.26-.68-.53-1.36-.8-2s-.59-1.32-.87-2c-.56-1.33-1.25-2.56-1.86-3.78-.31-.61-.67-1.18-1-1.76s-.63-1.14-1-1.66c-.7-1-1.28-2.08-1.95-2.95-1.23-1.81-2.4-3.21-3.18-4.23L148.33,56l2.59-2.27,1.39,1.6c.82,1.07,2.05,2.55,3.35,4.45.7.92,1.31,2,2.05,3.11.37.55.67,1.16,1,1.75s.72,1.21,1,1.85c.64,1.28,1.37,2.59,2,4,.3.69.65,1.37.92,2.09l.85,2.13A69.38,69.38,0,0,1,167.43,91c.16,1.14.18,2.2.27,3.14s.1,1.75.12,2.43c0,1.34.05,2.11.05,2.11Z"/><path class="cls-1" d="M175.58,45.42l-.72-1L174,43.26c-.33-.44-.72-.93-1.13-1.46-.83-1.06-1.79-2.31-2.92-3.57l-1.7-2c-.62-.64-1.24-1.3-1.86-2a93.46,93.46,0,0,0-7.22-6.76c-1-.89-1.92-1.55-2.54-2l-1-.77L157.79,22l1,.79c.63.52,1.57,1.2,2.63,2.13a99.76,99.76,0,0,1,7.49,7l1.91,2c.61.69,1.2,1.38,1.77,2,1.17,1.3,2.16,2.6,3,3.7.43.55.83,1.05,1.17,1.51l.86,1.2.74,1Z"/><path class="cls-1" d="M140.46,15.27l-.28-.14c-.19-.1-.47-.24-.83-.4l-3-1.35c-1.23-.55-2.71-1.09-4.28-1.72s-3.3-1.15-5-1.73-3.46-1-5.11-1.41-3.18-.77-4.51-1L114.25,7l-.91-.15-.32,0L114,0l.35.05c.23,0,.55.07,1,.15l3.46.61c1.42.26,3.07.68,4.84,1.08s3.62,1,5.48,1.52,3.68,1.2,5.38,1.85,3.28,1.25,4.6,1.85l3.2,1.45c.39.17.69.32.89.42l.31.16Z"/><path class="cls-1" d="M189.48,75.28s-.5-1.73-1.24-4.33c-.44-1.28-.93-2.78-1.49-4.38s-1.24-3.26-2-4.91-1.46-3.3-2.25-4.79c-.39-.75-.76-1.48-1.12-2.16s-.74-1.32-1.07-1.9C179,50.44,178,49,178,49l4.27-2.71.7,1.1c.46.69,1,1.73,1.75,3,.35.62.75,1.29,1.13,2L187,54.59c.84,1.58,1.6,3.32,2.38,5s1.43,3.53,2.09,5.19,1.12,3.26,1.58,4.61l1.3,4.57Z"/><path class="cls-1" d="M195.85,98.71s0-.85,0-2.33c0-.74-.05-1.64-.08-2.68s-.16-2.19-.26-3.46A97,97,0,0,0,192,71.87,95.31,95.31,0,0,0,185.1,54.5l-.84-1.63-.82-1.43-1.33-2.33c-.37-.65-.71-1.13-.92-1.47l-.33-.51,2.91-1.85.34.54c.22.35.56.85.94,1.51s.86,1.48,1.39,2.41l.85,1.49c.27.54.56,1.1.87,1.69a99.3,99.3,0,0,1,10.73,37c.1,1.31.19,2.52.27,3.59s.06,2,.08,2.77c0,1.54,0,2.41,0,2.41Z"/><path class="cls-1" d="M65.72,34.82s-.4.2-.78.41l-.77.45L55.5,20.27l1-.55c.49-.27,1-.51,1-.51Z"/><polygon class="cls-1" points="70 32.74 68.38 33.47 60.75 17.53 62.77 16.61 70 32.74"/><polygon class="cls-1" points="74.39 30.93 72.74 31.58 66.19 15.16 68.25 14.36 74.39 30.93"/><path class="cls-1" d="M78.9,29.44l-.85.24-.84.28L71.76,13.15l1-.36,1.06-.3Z"/><polygon class="cls-1" points="83.5 28.24 81.78 28.64 77.45 11.5 79.6 11 83.5 28.24"/><polygon class="cls-1" points="88.17 27.33 86.42 27.64 83.24 10.25 85.42 9.87 88.17 27.33"/><path class="cls-1" d="M92.89,26.75l-.88.07-.88.12-2-17.56,1.09-.14c.55-.06,1.1-.09,1.1-.09Z"/><polygon class="cls-1" points="97.65 26.48 95.87 26.53 94.99 8.87 97.2 8.81 97.65 26.48"/><polygon class="cls-1" points="102.42 26.51 100.64 26.46 100.9 8.79 103.11 8.85 102.42 26.51"/><path class="cls-1" d="M107.17,26.84l-.28,0-.61,0-.88-.07,1.41-17.62,1.1.09.76.06.34,0Z"/><path class="cls-1" d="M111.87,27.51l-.87-.16a8.72,8.72,0,0,0-.87-.13l2.56-17.49s.55.06,1.1.16l1.08.2Z"/><polygon class="cls-1" points="116.53 28.47 114.8 28.07 118.52 10.79 120.68 11.28 116.53 28.47"/><path class="cls-1" d="M121.12,29.71l-.85-.24-.86-.24,4.86-17,1.06.3,1.06.31Z"/><path class="cls-1" d="M125.6,31.3l-.83-.32c-.41-.18-.83-.31-.83-.31l6-16.64s.53.17,1,.38l1,.41Z"/><polygon class="cls-1" points="129.97 33.16 128.35 32.43 135.42 16.22 137.43 17.13 129.97 33.16"/><path class="cls-1" d="M134.22,35.3l-.24-.14-.54-.28-.79-.4,8.11-15.71,1,.51.67.35.3.17Z"/><path class="cls-1" d="M138.31,37.73l-.75-.47-.51-.34-.24-.14,9.13-15.13.3.17c.17.12.41.26.64.41l.93.6Z"/><path class="cls-2" d="M151.59,48.61l-.76-.8c-.19-.21-.4-.4-.55-.54L150,47l4.81-4.93.28.27c.16.16.39.36.59.58l.84.88Z"/><polygon class="cls-2" points="154.71 52.06 153.26 50.38 159.27 44.97 160.88 46.84 154.71 52.06"/><path class="cls-2" d="M157.61,55.7s-.08-.12-.21-.28-.3-.39-.47-.6l-.68-.88,7.28-5.75.77,1c.2.25.39.49.53.68l.23.31Z"/><path class="cls-2" d="M160.24,59.53l-.59-.94c-.15-.24-.31-.46-.43-.63l-.2-.28,8.62-6,.23.32c.14.19.32.45.49.72.34.54.69,1.07.69,1.07Z"/><polygon class="cls-2" points="162.64 63.51 161.54 61.58 171.56 55.57 172.84 57.8 162.64 63.51"/><path class="cls-2" d="M164.79,67.63s0-.13-.14-.32l-.36-.68-.5-1,11.45-5.91.59,1.17.41.8.18.37Z"/><path class="cls-2" d="M166.64,71.89s-.2-.52-.41-1a7.25,7.25,0,0,0-.3-.71l-.14-.31,12.91-5.63.16.38c.11.22.25.52.37.83l.48,1.24Z"/><polygon class="cls-2" points="168.23 76.25 167.52 74.15 181.89 68.96 182.75 71.51 168.23 76.25"/><polygon class="cls-2" points="169.54 80.7 168.94 78.57 184.76 73.99 185.51 76.61 169.54 80.7"/><path class="cls-2" d="M170.53,85.24s-.1-.54-.19-1.09-.25-1.08-.25-1.08l17.26-3.81s.15.68.31,1.35L187.9,82Z"/></g></g></svg>